<svg xmlns="http://www.w3.org/2000/svg" viewBox="0 0 132.11 28.01"><defs><style>.cls-1{fill:#23345b;}</style></defs><g id="Layer_2" data-name="Layer 2"><g id="Layer_1-2" data-name="Layer 1"><path class="cls-1" d="M24.3,4.53A13.53,13.53,0,0,0,15.58.09c-.07,0-.12,0-.14-.09h-3a3.62,3.62,0,0,1-1.12.24A14,14,0,0,0,.15,11.82c0,.18,0,.4-.15.54v3.27a2.85,2.85,0,0,1,.25,1.11,14.25,14.25,0,0,0,2.67,5.85.92.92,0,0,0,.78.4,38.53,38.53,0,0,0,21.93-5.8c.62-.4,1.21-.85,1.83-1.25a1,1,0,0,0,.51-.88A13.82,13.82,0,0,0,24.3,4.53ZM18,15.1l-.16.16a.38.38,0,0,1-.38.09c-.16-.09-.05-.26,0-.37.21-.52.45-1,.65-1.54A3.9,3.9,0,0,0,16,8.65c-.47-.2-.5-.19-.48.31.06,1.69.18,3.38.09,5.08s-.26,3.47-.46,5.2a2.86,2.86,0,0,1-.34,1c-.28.53-.57.55-.87,0A7,7,0,0,1,13.19,18c-.06-.29-.09-.57-.16-.85s0-.29.26-.3.86.18,1.08-.07.11-.69.13-1.05a54.21,54.21,0,0,0-.15-7.21c0-.38-.27-.3-.48-.29a4.19,4.19,0,0,0-3.36,6.37,2.56,2.56,0,0,1,.48,1,1.74,1.74,0,0,1-.87-.55,5.16,5.16,0,0,1-.27-6.6A12.48,12.48,0,0,1,11.32,6.8a5.17,5.17,0,0,0,1.59-2.74,3.91,3.91,0,0,1,.48-1.31c.25-.36.47-.37.75,0a2.43,2.43,0,0,1,.47,1,6.3,6.3,0,0,0,2.18,3.2,6.37,6.37,0,0,1,2.41,3.33A5.14,5.14,0,0,1,18,15.1Z"/><path class="cls-1" d="M8.23,26.73a13.74,13.74,0,0,0,13-.73,13.29,13.29,0,0,0,6.24-8.27,50.77,50.77,0,0,1-9,5.65A43.1,43.1,0,0,1,8.23,26.73Z"/><path class="cls-1" d="M46,23.23a6.18,6.18,0,0,1-3.53.95c-3.53,0-5.58-1.81-5.58-5.36V12.67H34.6V9.34h2.31V5.7h4.33V9.34H45v3.33H41.24v6.09a1.74,1.74,0,0,0,1.86,2,3,3,0,0,0,1.76-.55Z"/><path class="cls-1" d="M63.75,15.4V24H59.42v-7.9c0-2.41-1.12-3.52-3-3.52-2.09,0-3.59,1.27-3.59,4V24H48.47V3.34H52.8v7.22a6.61,6.61,0,0,1,4.75-1.78C61.08,8.78,63.75,10.84,63.75,15.4Z"/><path class="cls-1" d="M91.4,9,86,24H81.81l-3.36-9.28L75,24H70.81L65.42,9H69.5L73,19.12,76.7,9h3.67l3.55,10.11L87.56,9Z"/><path class="cls-1" d="M106.15,15.43V24H102.1V22.09c-.81,1.37-2.36,2.09-4.56,2.09C94,24.18,92,22.23,92,19.65s1.86-4.47,6.41-4.47h3.45c0-1.87-1.11-2.95-3.45-2.95a7.18,7.18,0,0,0-4.3,1.39l-1.56-3A11.48,11.48,0,0,1,99,8.78C103.51,8.78,106.15,10.9,106.15,15.43Zm-4.33,3.8V17.7h-3c-2,0-2.67.76-2.67,1.76s.92,1.8,2.44,1.8A3.2,3.2,0,0,0,101.82,19.23Z"/><path class="cls-1" d="M119.35,8.78v4c-.36,0-.64-.06-1-.06-2.39,0-4,1.31-4,4.17V24h-4.34V9h4.14v2A6.06,6.06,0,0,1,119.35,8.78Z"/><path class="cls-1" d="M132.11,23.23a6.2,6.2,0,0,1-3.53.95c-3.53,0-5.59-1.81-5.59-5.36V12.67h-2.3V9.34H123V5.7h4.34V9.34h3.72v3.33h-3.72v6.09a1.74,1.74,0,0,0,1.86,2,2.92,2.92,0,0,0,1.75-.55Z"/></g></g></svg>